# xmcd
#
# Track frame offsets:
#	150
#	17926
#	37680
#	66345
#	82776
#	107060
#	128324
#	154826
#	172862
#	196074
#
# Disc length: 2855 seconds
#
# Revision: 1
# Processed by: cddbd v1.4PL0 Copyright (c) Steve Scherf et al.
# Submitted via: audiograbber 1.81.02
#
DISCID=690b250a
DTITLE=Voodoo Roosters - Who's Blue
DYEAR=1900
DGENRE=Blues
TTITLE0=Who's Blue
TTITLE1=Worried Man
TTITLE2=House that Love Built
TTITLE3=Devil Made Me Do It (Blues)
TTITLE4=Black Sheep
TTITLE5=Voodoo Love Child
TTITLE6=Hoochie Coochie Man
TTITLE7=Double Water Sign
TTITLE8=Lord Have Mercy
TTITLE9=Little By Little
EXTD=
EXTT0=
EXTT1=
EXTT2=
EXTT3=
EXTT4=
EXTT5=
EXTT6=
EXTT7=
EXTT8=
EXTT9=
PLAYORDER=
